<svg width="38" height="42" viewBox="0 0 38 42" fill="none" xmlns="http://www.w3.org/2000/svg">
<path fill-rule="evenodd" clip-rule="evenodd" d="M0 21.2433C0 32.429 8.50727 41.4969 19.0004 41.4969C29.4935 41.4969 38 32.429 38 21.2433C38 10.0577 29.4935 0.989746 19.0004 0.989746C8.50727 0.989746 0 10.0577 0 21.2433Z" fill="transparent
"/>
<path fill-rule="evenodd" clip-rule="evenodd" d="M16.7725 28.6232C16.7725 29.7554 15.9153 30.6732 14.8579 30.6732C13.8005 30.6732 12.9434 29.7554 12.9434 28.6232C12.9434 27.491 13.8005 26.5732 14.8579 26.5732C15.9153 26.5732 16.7725 27.491 16.7725 28.6232Z" stroke="white"/>
<path fill-rule="evenodd" clip-rule="evenodd" d="M26.7276 28.6232C26.7276 29.7554 25.8704 30.6732 24.813 30.6732C23.7556 30.6732 22.8984 29.7554 22.8984 28.6232C22.8984 27.491 23.7556 26.5732 24.813 26.5732C25.8704 26.5732 26.7276 27.491 26.7276 28.6232Z" stroke="white"/>
<path d="M6.96875 11.6494H9.34881L14.4356 26.5731H24.8893" stroke="white"/>
<path d="M10.9512 15.9136H27.0337L24.5295 23.2934H13.2707" stroke="white"/>
</svg>
